<svg width="190" height="44" viewBox="0 0 190 44" fill="none" xmlns="http://www.w3.org/2000/svg">
<path d="M31.8529 19.4588C36.9787 16.4169 35.4407 11.6924 34.0841 9.60448C31.7936 15.1344 25.1611 13.605 22.7167 14.4596C20.9809 14.9226 18.5318 16.2992 17.0609 17.5307C16.7424 17.7974 15.9243 18.3837 15.9645 18.7491C16.0846 19.4115 16.7928 19.3425 17.3647 18.9832C19.072 17.9105 23.4151 15.8878 26.9697 16.6526C30.7243 17.9659 26.8406 19.0887 25.5019 20.4874C24.453 22.0982 25.4057 23.2619 25.9152 22.7787C27.8388 20.5295 28.6918 21.4305 31.8529 19.4588Z" fill="#FF2E6B"/>
<path d="M16.1474 24.542C11.0215 27.5833 12.5601 32.3076 13.9169 34.3955C16.2071 28.8661 22.84 30.396 25.2844 29.5417C27.0202 29.0788 29.4694 27.7025 30.9402 26.4712C31.2587 26.2046 32.0768 25.6184 32.0366 25.253C31.9164 24.5906 31.2082 24.6595 30.6363 25.0188C28.929 26.0913 24.5858 28.1134 21.031 27.3484C17.2761 26.0349 21.16 24.9125 22.4985 23.514C23.5474 21.9034 22.5945 20.7397 22.085 21.2228C20.1615 23.4717 19.3084 22.5707 16.1474 24.542Z" fill="#F4AE0B"/>
<path d="M175.199 30.3333C173.942 30.3333 172.814 29.9722 171.814 29.25C170.814 28.5208 170.022 27.5312 169.439 26.2812C168.863 25.0243 168.574 23.6111 168.574 22.0417C168.574 20.4653 168.863 19.0521 169.439 17.8021C170.022 16.5521 170.814 15.566 171.814 14.8437C172.814 14.1146 173.942 13.75 175.199 13.75C176.456 13.75 177.581 14.1146 178.574 14.8437C179.574 15.5729 180.366 16.5625 180.949 17.8125C181.533 19.0625 181.824 20.4722 181.824 22.0417C181.824 23.6111 181.533 25.0243 180.949 26.2812C180.373 27.5312 179.585 28.5208 178.585 29.25C177.585 29.9722 176.456 30.3333 175.199 30.3333ZM175.199 29.6667C176.331 29.6667 177.345 29.3333 178.241 28.6667C179.144 28 179.856 27.0903 180.376 25.9375C180.897 24.7847 181.158 23.4861 181.158 22.0417C181.158 20.5972 180.894 19.3021 180.366 18.1562C179.845 17.0035 179.137 16.0937 178.241 15.4271C177.345 14.7535 176.331 14.4167 175.199 14.4167C174.074 14.4167 173.06 14.7535 172.158 15.4271C171.262 16.0937 170.55 17.0035 170.022 18.1562C169.501 19.3021 169.241 20.5972 169.241 22.0417C169.241 23.4861 169.501 24.7847 170.022 25.9375C170.543 27.0903 171.251 28 172.147 28.6667C173.05 29.3333 174.067 29.6667 175.199 29.6667Z" fill="#FF2E6B"/>
<path d="M152.266 19.625V30H150.996V8.66666H152.266V16.5313H152.391C152.766 15.6979 153.364 15.0347 154.183 14.5417C155.009 14.0417 155.999 13.7917 157.152 13.7917C158.228 13.7917 159.176 14.0208 159.996 14.4792C160.815 14.9306 161.454 15.5799 161.912 16.4271C162.378 17.2674 162.61 18.2743 162.61 19.4479V30H161.35V19.5C161.35 18.132 160.944 17.0347 160.131 16.2083C159.319 15.3819 158.246 14.9688 156.912 14.9688C156.016 14.9688 155.218 15.1632 154.516 15.5521C153.815 15.941 153.263 16.4861 152.86 17.1875C152.464 17.882 152.266 18.6945 152.266 19.625Z" fill="#FF2E6B"/>
<path d="M134.208 20V30H132.354V14H134.156V16.5104H134.323C134.698 15.6909 135.281 15.0347 136.073 14.5416C136.871 14.0416 137.858 13.7916 139.031 13.7916C140.108 13.7916 141.052 14.0173 141.865 14.4687C142.684 14.9132 143.319 15.5694 143.771 16.4375C144.229 17.3055 144.458 18.3715 144.458 19.6354V30H142.604V19.75C142.604 18.4375 142.236 17.3993 141.5 16.6354C140.771 15.8715 139.792 15.4896 138.562 15.4896C137.722 15.4896 136.976 15.6701 136.323 16.0312C135.67 16.3923 135.153 16.9132 134.771 17.5937C134.396 18.2673 134.208 19.0694 134.208 20Z" fill="#FF2E6B"/>
<path d="M123.729 30V14H126.187V30H123.729ZM124.979 11.3333C124.5 11.3333 124.087 11.1701 123.739 10.8438C123.399 10.5174 123.229 10.125 123.229 9.66667C123.229 9.20833 123.399 8.81597 123.739 8.48958C124.087 8.16319 124.5 8 124.979 8C125.458 8 125.868 8.16319 126.208 8.48958C126.555 8.81597 126.729 9.20833 126.729 9.66667C126.729 10.125 126.555 10.5174 126.208 10.8438C125.868 11.1701 125.458 11.3333 124.979 11.3333Z" fill="#FF2E6B"/>
<path d="M104.002 36V14H107.044V16.5937H107.304C107.485 16.2604 107.745 15.875 108.085 15.4375C108.426 15 108.898 14.618 109.502 14.2916C110.106 13.9583 110.905 13.7916 111.898 13.7916C113.189 13.7916 114.342 14.118 115.356 14.7708C116.37 15.4236 117.165 16.3646 117.742 17.5937C118.325 18.8229 118.617 20.3021 118.617 22.0312C118.617 23.7604 118.328 25.243 117.752 26.4792C117.176 27.7083 116.384 28.6562 115.377 29.3229C114.37 29.9826 113.221 30.3125 111.929 30.3125C110.957 30.3125 110.162 30.1493 109.544 29.8229C108.932 29.4965 108.453 29.1146 108.106 28.6771C107.759 28.2396 107.492 27.8507 107.304 27.5104H107.117V36H104.002ZM107.054 22C107.054 23.125 107.217 24.1111 107.544 24.9583C107.87 25.8055 108.342 26.4687 108.96 26.9479C109.578 27.4201 110.335 27.6562 111.231 27.6562C112.162 27.6562 112.939 27.4097 113.564 26.9167C114.189 26.4167 114.662 25.7396 114.981 24.8854C115.308 24.0312 115.471 23.0694 115.471 22C115.471 20.9444 115.311 19.9965 114.992 19.1562C114.679 18.316 114.207 17.6528 113.575 17.1666C112.95 16.6805 112.169 16.4375 111.231 16.4375C110.328 16.4375 109.564 16.6701 108.939 17.1354C108.321 17.6007 107.853 18.25 107.533 19.0833C107.214 19.9166 107.054 20.8889 107.054 22Z" fill="#FF2E6B"/>
<path d="M98.5013 8.66666V30H94.7305V8.66666H98.5013Z" fill="#FF2E6B"/>
<path d="M82.8572 30.3125C81.2114 30.3125 79.7947 29.9792 78.6072 29.3125C77.4267 28.6389 76.5169 27.6875 75.8781 26.4583C75.2392 25.2222 74.9197 23.7604 74.9197 22.0729C74.9197 20.4271 75.2392 18.9826 75.8781 17.7396C76.5169 16.4965 77.4163 15.5278 78.576 14.8333C79.7426 14.1389 81.1107 13.7916 82.6801 13.7916C83.7357 13.7916 84.7183 13.9618 85.6281 14.3021C86.5447 14.6354 87.3433 15.1389 88.0239 15.8125C88.7114 16.4861 89.2461 17.3333 89.6281 18.3541C90.01 19.368 90.201 20.5555 90.201 21.9166V23.1354H76.6906V20.3854H86.0239C86.0239 19.7465 85.885 19.1805 85.6072 18.6875C85.3295 18.1944 84.944 17.809 84.451 17.5312C83.9649 17.2465 83.3989 17.1041 82.7531 17.1041C82.0795 17.1041 81.4822 17.2604 80.9614 17.5729C80.4475 17.8785 80.0447 18.2916 79.7531 18.8125C79.4614 19.3264 79.3121 19.8993 79.3051 20.5312V23.1458C79.3051 23.9375 79.451 24.6215 79.7426 25.1979C80.0413 25.7743 80.4614 26.2187 81.0031 26.5312C81.5447 26.8437 82.1871 27 82.9301 27C83.4232 27 83.8746 26.9305 84.2843 26.7917C84.694 26.6528 85.0447 26.4444 85.3364 26.1667C85.6281 25.8889 85.8503 25.5486 86.0031 25.1458L90.1072 25.4167C89.8989 26.4028 89.4718 27.2639 88.826 28C88.1871 28.7292 87.3607 29.2986 86.3468 29.7083C85.3399 30.1111 84.1767 30.3125 82.8572 30.3125Z" fill="#FF2E6B"/>
<path d="M52 30V8.66666H57.1563V17.2292H65.5625V8.66666H70.7084V30H65.5625V21.4271H57.1563V30H52Z" fill="#FF2E6B"/>
</svg>
