<svg width="32" height="32" viewBox="0 0 32 32" fill="none" xmlns="http://www.w3.org/2000/svg">
<path d="M23.8528 13.4588C28.9787 10.4169 27.4406 5.69245 26.0841 3.60448C23.7935 9.1344 17.161 7.605 14.7167 8.45956C12.9809 8.92257 10.5317 10.2992 9.06086 11.5307C8.74231 11.7974 7.92419 12.3837 7.96441 12.7491C8.08456 13.4115 8.79273 13.3425 9.36462 12.9832C11.072 11.9105 15.4151 9.88783 18.9697 10.6526C22.7243 11.9659 18.8405 13.0887 17.5019 14.4874C16.4529 16.0982 17.4057 17.2619 17.9151 16.7787C19.8388 14.5295 20.6917 15.4305 23.8528 13.4588Z" fill="#FF2E6B"/>
<path d="M8.14731 18.542C3.02148 21.5833 4.56 26.3076 5.9168 28.3955C8.207 22.8661 14.8399 24.396 17.2843 23.5417C19.0202 23.0788 21.4693 21.7025 22.9401 20.4712C23.2587 20.2046 24.0768 19.6184 24.0365 19.253C23.9163 18.5906 23.2081 18.6595 22.6362 19.0188C20.9289 20.0913 16.5858 22.1134 13.0309 21.3484C9.27605 20.0349 13.1599 18.9125 14.4985 17.514C15.5473 15.9034 14.5945 14.7397 14.085 15.2228C12.1615 17.4717 11.3084 16.5707 8.14731 18.542Z" fill="#F4AE0B"/>
</svg>
